<?xml version="1.0" encoding="UTF-8"?>
<svg version="1.1" xmlns="http://www.w3.org/2000/svg" width="1024" height="1024">
<path d="M0 0 C188.76 0 377.52 0 572 0 C574.02724166 7.43321941 575.80284053 14.64587638 577.1875 22.1875 C578.71384083 30.32658008 580.28068414 38.45449349 581.92578125 46.5703125 C582.09418518 47.40162689 582.26258911 48.23294128 582.43609619 49.08944702 C582.60655457 49.93085236 582.77701294 50.77225769 582.95263672 51.63916016 C585.66004836 65.0046107 588.31531427 78.36067554 590.5625 91.8125 C593.06697958 106.79605105 596.06957738 121.66575249 599.09716797 136.55029297 C600.41657652 143.04310191 601.7118658 149.54072578 603.00848389 156.03811646 C603.72745164 159.64016637 604.44767686 163.24196467 605.16796875 166.84375 C605.3137738 167.57296158 605.45957886 168.30217316 605.60980225 169.05348206 C606.59559146 173.98226108 607.58369648 178.91057221 608.57289124 183.83866882 C609.29107391 187.41713087 610.00849614 190.99574519 610.7258606 194.57437134 C611.06865793 196.28340815 611.41180364 197.99237513 611.75534058 199.70126343 C617.40582971 227.81084488 617.40582971 227.81084488 618.98828125 238.4921875 C620.12390068 246.09021679 621.65569628 253.59969362 623.1875 261.125 C623.49477957 262.64609557 623.80173902 264.16725584 624.10839844 265.68847656 C624.74666325 268.85343832 625.38629853 272.01811857 626.02685547 275.18261719 C627.46410112 282.28940875 628.88280124 289.399908 630.30264282 296.51019287 C631.00833071 300.04339817 631.71513082 303.57638087 632.421875 307.109375 C632.65487305 308.27436523 632.88787109 309.43935547 633.12792969 310.63964844 C633.32359919 311.61441174 633.32359919 311.61441174 633.52322161 312.60886723 C633.89598479 314.47834426 634.26428224 316.34871186 634.63084924 318.2194137 C635.85770673 324.43922519 637.12812684 330.63057663 638.58152199 336.80243015 C643.31481321 357.65913996 643.83793229 377.84044368 643.69643638 399.15824871 C643.66978387 404.22570218 643.6790332 409.29313026 643.68334389 414.3606348 C643.68650324 424.14823048 643.65910191 433.93548947 643.62033591 443.72299919 C643.57675613 455.07061313 643.57234688 466.41803129 643.56762695 477.76574707 C643.53625728 507.65638388 643.45248967 537.54694717 643.375 567.4375 C643.25125 634.283125 643.1275 701.12875 643 770 C401.44 770 159.88 770 -89 770 C-89.12375 703.360625 -89.2475 636.72125 -89.375 568.0625 C-89.42962402 547.04183838 -89.48424805 526.02117676 -89.54052734 504.36352539 C-89.56762695 478.64147949 -89.56762695 478.64147949 -89.57266235 466.58958435 C-89.57823913 458.19474624 -89.60016942 449.80014994 -89.63345337 441.40538025 C-89.67185183 431.70617445 -89.68896788 422.00719914 -89.6806697 412.30791691 C-89.6770805 407.35431384 -89.68246398 402.40122478 -89.71529078 397.44771779 C-89.8400873 377.67343292 -89.60301032 359.38426159 -83.70411426 340.30712378 C-82.70952783 337.0482294 -81.91261821 333.75800741 -81.11303711 330.44628906 C-80.58622072 328.38562002 -80.05769553 326.32538698 -79.52734375 324.265625 C-79.23694717 323.13002136 -78.9465506 321.99441772 -78.64735413 320.82440186 C-77.74581164 317.29915221 -76.84197607 313.77449801 -75.9375 310.25 C-71.21193012 291.83285022 -66.60795348 273.40062919 -62.359375 254.8671875 C-56.00686175 227.17929338 -48.87334094 199.68041741 -41.84069824 172.15930176 C-40.89101278 168.44023763 -39.94506023 164.72024191 -39 161 C-38.8329808 160.34658882 -38.66596161 159.69317764 -38.49388123 159.01996613 C-36.41208581 150.86931998 -34.47950165 142.71463815 -32.75091553 134.48010254 C-31.41872884 128.30611078 -29.89523678 122.1786916 -28.3828125 116.046875 C-28.04025083 114.65271506 -27.6977952 113.25852907 -27.35543823 111.86431885 C-26.64248757 108.9630743 -25.92799276 106.06221563 -25.21240234 103.16162109 C-24.30936448 99.50052807 -23.41069066 95.83837972 -22.51311111 92.17594528 C-16.09306226 65.99590848 -16.09306226 65.99590848 -12.57937622 53.63879395 C-10.85116082 47.55148257 -9.38265393 41.42371059 -8 35.25 C-7.77828125 34.27546875 -7.5565625 33.3009375 -7.328125 32.296875 C-6.5482559 28.86545096 -5.77439689 25.43266314 -5 22 C-3.35 14.74 -1.7 7.48 0 0 Z M18 21 C11.565 46.74 11.565 46.74 5 73 C2.89453125 81.421875 0.7890625 89.84375 -1.31640625 98.265625 C-1.58839844 99.35568848 -1.86039063 100.44575195 -2.140625 101.56884766 C-2.75652795 104.02791016 -3.37628798 106.48579441 -4 108.94287109 C-6.11728118 117.30654768 -8.06356769 125.68882823 -9.875 134.125 C-11.91984917 143.50174841 -14.21622386 152.75711539 -16.81762695 161.99365234 C-18.59987278 168.37375359 -20.13529102 174.78174726 -21.5625 181.25 C-23.00207974 187.76308873 -24.54125964 194.21135956 -26.375 200.625 C-30.79436663 216.12475612 -34.93435345 231.77270538 -37.875 247.625 C-39.62223373 256.90083999 -42.04335723 265.9773909 -44.49972534 275.08447266 C-48.48990729 289.88739668 -52.23287006 304.74825524 -55.9375 319.625 C-56.22430634 320.77613281 -56.51111267 321.92726563 -56.80661011 323.11328125 C-59.10003236 332.31444639 -59.10003236 332.31444639 -61.37838745 341.51934814 C-61.77694529 343.10986179 -62.18746047 344.69745483 -62.61306763 346.28094482 C-63.62729515 350.08883996 -64 352.98602668 -64 357 C161.72 357 387.44 357 620 357 C616.68410953 339.75736958 613.33182251 322.52673778 609.875 305.3125 C609.44131288 303.14910726 609.00771903 300.98569582 608.57421875 298.82226562 C607.09553883 291.4441236 605.61610523 284.06613311 604.13378906 276.6887207 C602.38802386 267.98656925 600.68356693 259.27689057 599 250.5625 C598.8689386 249.8844632 598.7378772 249.20642639 598.60284424 248.50784302 C596.37300595 236.96937125 594.15553304 225.42965295 592.07421875 213.86328125 C590.02939477 202.5077054 587.87548194 191.18325803 585.58154297 179.87548828 C584.44009846 174.23151961 583.31544072 168.58417981 582.1875 162.9375 C581.66806694 160.33852198 581.14856882 157.73955712 580.62890625 155.140625 C580.49622345 154.47701462 580.36354065 153.81340424 580.22683716 153.12968445 C579.40619582 149.02669363 578.58346797 144.92412676 577.75924683 140.82185364 C574.54630657 124.83021092 571.35851547 108.83362264 568.21820068 92.82754517 C567.86952742 91.05195813 567.51998536 89.27654143 567.16949463 87.50131226 C565.44483319 78.76032449 563.80267064 70.03784633 562.50317383 61.22167969 C561.60800159 55.49014507 560.50122983 49.79816769 559.39550781 44.10424805 C558.99585326 42.04109311 558.60325992 39.97666962 558.2109375 37.91210938 C557.95354841 36.57804324 557.69575092 35.24405582 557.4375 33.91015625 C557.20933594 32.72558838 556.98117187 31.54102051 556.74609375 30.32055664 C555.94828992 26.50966463 555.94828992 26.50966463 554 21 C377.12 21 200.24 21 18 21 Z M-67 378 C-67 413.64 -67 449.28 -67 486 C160.04 486 387.08 486 621 486 C621 450.36 621 414.72 621 378 C393.96 378 166.92 378 -67 378 Z M-67 509 C-67 544.64 -67 580.28 -67 617 C160.04 617 387.08 617 621 617 C621 581.36 621 545.72 621 509 C393.96 509 166.92 509 -67 509 Z M-67 639 C-67 675.3 -67 711.6 -67 749 C160.04 749 387.08 749 621 749 C621 712.7 621 676.4 621 639 C393.96 639 166.92 639 -67 639 Z " fill="#D1B35C" transform="translate(235,127)"/>
<path d="M0 0 C57.09 0 114.18 0 173 0 C173 8.91 173 17.82 173 27 C115.91 27 58.82 27 0 27 C0 18.09 0 9.18 0 0 Z " fill="#D0B35D" transform="translate(197,779)"/>
<path d="M0 0 C57.09 0 114.18 0 173 0 C173 8.91 173 17.82 173 27 C115.91 27 58.82 27 0 27 C0 18.09 0 9.18 0 0 Z " fill="#D0B35C" transform="translate(197,652)"/>
<path d="M0 0 C57.09 0 114.18 0 173 0 C173 8.58 173 17.16 173 26 C115.91 26 58.82 26 0 26 C0 17.42 0 8.84 0 0 Z " fill="#D0B35D" transform="translate(197,530)"/>
<path d="M0 0 C8.61640103 7.04496723 11.93484904 17.60114139 13.125 28.3125 C12.70115739 37.30533449 8.65092147 46.69596796 2.6875 53.375 C-5.63173768 60.53268374 -14.32909197 62.95883929 -25.171875 62.65625 C-34.71531027 61.80161401 -42.40871297 57.27878703 -49.125 50.5625 C-55.53821156 41.21753458 -57.78465208 31.07285266 -55.88671875 19.859375 C-53.54410533 10.71887109 -48.24626033 2.85065343 -40.390625 -2.44140625 C-27.5013892 -9.78245596 -12.14042012 -8.07831358 0 0 Z M-31.625 19.375 C-34.7637234 23.09496847 -34.63633941 26.67932858 -34.3125 31.375 C-32.78148432 34.58284239 -31.02399298 37.08261366 -28.3125 39.375 C-24.35711191 40.47865698 -20.49944759 40.63876613 -16.5 39.75 C-13.15534549 37.64764573 -11.06802984 34.88605968 -9.3125 31.375 C-8.76354405 25.66585808 -9.68612907 22.80723114 -13.3125 18.375 C-19.45544608 12.43681879 -25.62871065 14.18902002 -31.625 19.375 Z " fill="#D0B35B" transform="translate(789.3125,788.625)"/>
<path d="M0 0 C3.80029595 2.72111783 6.51368751 5.46745038 9.25 9.25 C10.054375 10.3328125 10.054375 10.3328125 10.875 11.4375 C15.537959 20.97537069 16.65633705 30.19113194 13.625 40.3125 C10.28058194 49.56853026 4.73137447 56.11778602 -3.8125 61 C-9.03129782 63.22076503 -14.00673477 63.43224928 -19.625 63.4375 C-20.30691406 63.44974609 -20.98882813 63.46199219 -21.69140625 63.47460938 C-30.32011105 63.49926282 -36.36673606 60.9326618 -42.75 55.25 C-50.28619362 47.54407229 -53.74733982 40.08069953 -54 29.25 C-53.65074418 17.91664869 -49.99138597 10.40400657 -41.796875 2.32421875 C-30.40588742 -7.00620401 -12.38642308 -7.79508009 0 0 Z M-27.75 19.25 C-27.75 19.91 -27.75 20.57 -27.75 21.25 C-28.41 21.25 -29.07 21.25 -29.75 21.25 C-32.23237146 24.97355719 -32.41580396 28.93059681 -31.75 33.25 C-29.93831113 36.94305808 -28.35513341 38.82365601 -25 41.1875 C-20.89087256 42.53086858 -17.87510667 42.50029006 -13.75 41.25 C-9.8103754 38.85196764 -7.920639 36.71971254 -6.75 32.25 C-6.24477608 28.29241264 -6.56007812 26.59592913 -8.5 23.0625 C-11.34693606 19.50382993 -13.20003217 17.73221221 -17.5625 16.375 C-21.75527156 16.21057759 -24.02053322 17.38526661 -27.75 19.25 Z " fill="#D0B35B" transform="translate(786.75,659.75)"/>
<path d="M0 0 C8.1401524 5.42676826 12.08841631 13.85366564 14.28125 23.16015625 C16.16404695 33.56260938 13.05144639 42.69489119 7.48828125 51.48828125 C2.47231417 58.01467437 -5.16291229 62.43512099 -13.25 63.75 C-25.62502503 64.58355091 -34.4939577 62.50919154 -44.25 54.75 C-51.30648961 47.69351039 -54.14939747 39.24993321 -54.4375 29.4375 C-54.22715849 18.93795291 -50.86638569 10.48487484 -43.3984375 2.859375 C-30.50730655 -7.64450948 -14.19898808 -7.88832671 0 0 Z M-31.25 22.75 C-32.7459122 27.2377366 -33.02306515 31.08790993 -31 35.4375 C-30.4225 36.200625 -29.845 36.96375 -29.25 37.75 C-28.734375 38.513125 -28.21875 39.27625 -27.6875 40.0625 C-24.34602441 42.37582925 -21.72728569 42.36635208 -17.7265625 42.20703125 C-13.03015313 41.34034372 -10.66417643 38.67842241 -7.875 34.875 C-6.51483946 30.25045416 -6.68430865 26.85962534 -8.875 22.5625 C-11.99148229 18.87192886 -14.91918591 16.21616282 -19.75 15.25 C-24.33192209 16.16638442 -28.29154137 19.16870798 -31.25 22.75 Z " fill="#D0B25C" transform="translate(787.25,525.25)"/>
</svg>
